<svg width="267" height="113" viewBox="0 0 267 113" fill="none" xmlns="http://www.w3.org/2000/svg">
<path d="M2.47039 102.764C1.3968 102.505 0.31589 103.164 0.0561026 104.238C-0.203684 105.311 0.456029 106.392 1.52961 106.652L2.47039 102.764ZM157.009 92.6361L157.7 94.5129L157.009 92.6361ZM187.054 40.9943L185.168 41.6585L187.054 40.9943ZM1.52961 106.652C48.9695 118.132 83.6749 112.81 105.249 100.493C126.772 88.2048 135.432 68.6981 129.526 52.3856L125.765 53.7472C130.785 67.615 123.739 85.3306 103.266 97.0191C82.8451 108.678 49.2648 114.088 2.47039 102.764L1.52961 106.652ZM129.526 52.3856C123.868 36.7569 112.663 28.9038 102.495 29.1864C97.4051 29.3279 92.7033 31.5355 89.3978 35.6943C86.1053 39.8369 84.3175 45.7563 84.6766 53.1632L88.6719 52.9695C88.3482 46.2923 89.9748 41.3971 92.5292 38.1832C95.0707 34.9856 98.6484 33.2949 102.606 33.1849C110.534 32.9645 120.497 39.1956 125.765 53.7472L129.526 52.3856ZM84.6766 53.1632C85.386 67.7946 92.4229 82.2716 104.997 91.0274C117.632 99.8262 135.58 102.66 157.7 94.5129L156.317 90.7593C135.2 98.5372 118.663 95.6699 107.282 87.7448C95.8399 79.7767 89.3283 66.5065 88.6719 52.9695L84.6766 53.1632ZM157.7 94.5129C166.342 91.3299 176.089 83.5764 182.71 73.8557C189.336 64.1278 193.069 52.0535 188.941 40.33L185.168 41.6585C188.719 51.7433 185.624 62.472 179.404 71.6039C173.179 80.743 164.064 87.9062 156.317 90.7593L157.7 94.5129ZM188.941 40.33C185.546 30.6898 180.69 24.3836 175.568 20.9942C170.451 17.6077 164.957 17.1031 160.746 19.4269C156.501 21.7704 154.151 26.6617 154.689 32.7947C155.224 38.8946 158.581 46.3164 165.756 54.3945L168.747 51.7382C161.923 44.0556 159.109 37.4106 158.674 32.4452C158.241 27.513 160.122 24.3405 162.679 22.9289C165.273 21.4976 169.155 21.5466 173.361 24.3299C177.562 27.1101 181.974 32.5896 185.168 41.6585L188.941 40.33ZM165.756 54.3945C172.958 62.5033 180.388 67.0996 187.837 68.7967C195.299 70.4965 202.565 69.2383 209.337 66.023C222.779 59.6406 234.473 45.4644 242.748 30.5638L239.252 28.6218C231.138 43.2308 219.957 56.5523 207.621 62.4096C201.504 65.3142 195.156 66.3615 188.726 64.8966C182.283 63.4289 175.543 59.3903 168.747 51.7382L165.756 54.3945Z" fill="#1f3d66"/>
<path d="M227.665 24.7598C225.69 21.5073 253.762 35.5503 251.037 41.2467C248.313 46.943 247.187 33.5465 248.678 24.7671C250.228 15.643 253.647 6.95561 253.647 6.95561C253.647 6.95561 246.395 16.8576 239.715 22.8075C233.036 28.7574 229.639 28.0123 227.665 24.7598Z" stroke="#1f3d66" stroke-width="4" stroke-linejoin="round"/>
</svg>
