<svg width="62" height="96" viewBox="0 0 62 96" fill="none" xmlns="http://www.w3.org/2000/svg">
<path d="M5.472 21.208C7.62667 21.208 8.704 19.7573 8.704 16.856V1.24H11.264V16.856C11.264 18.968 10.752 20.6107 9.728 21.784C8.72533 22.936 7.424 23.512 5.824 23.512C3.49867 23.512 1.55733 22.7333 0 21.176L1.408 19.384C2.688 20.6 4.04267 21.208 5.472 21.208ZM17.1762 21.112C16.0029 19.5333 15.4162 17.496 15.4162 15C15.4162 12.504 16.0029 10.4773 17.1762 8.92C18.3496 7.34133 20.0989 6.552 22.4243 6.552C24.7709 6.552 26.5416 7.34133 27.7363 8.92C28.9309 10.4773 29.5283 12.504 29.5283 15C29.5283 17.496 28.9309 19.5333 27.7363 21.112C26.5416 22.6693 24.7709 23.448 22.4243 23.448C20.0989 23.448 18.3496 22.6693 17.1762 21.112ZM19.0002 10.488C18.2322 11.64 17.8482 13.144 17.8482 15C17.8482 16.856 18.2322 18.3707 19.0002 19.544C19.7683 20.696 20.9203 21.272 22.4563 21.272C23.9923 21.272 25.1443 20.696 25.9123 19.544C26.7016 18.3707 27.0963 16.856 27.0963 15C27.0963 13.144 26.7016 11.64 25.9123 10.488C25.1443 9.31467 23.9923 8.728 22.4563 8.728C20.9203 8.728 19.7683 9.31467 19.0002 10.488ZM34.2327 3.512C33.9767 3.21333 33.8487 2.84 33.8487 2.392C33.8487 1.944 33.9767 1.58133 34.2327 1.304C34.4887 1.00533 34.8621 0.855999 35.3527 0.855999C35.8434 0.855999 36.2274 1.00533 36.5047 1.304C36.7821 1.60267 36.9208 1.96533 36.9208 2.392C36.9208 2.81867 36.7821 3.18133 36.5047 3.48C36.2274 3.77867 35.8434 3.928 35.3527 3.928C34.8621 3.928 34.4887 3.78933 34.2327 3.512ZM34.1687 23V7H36.6007V23H34.1687ZM50.1962 6.552C53.6949 6.552 55.4443 8.792 55.4443 13.272V23H53.0122V13.272C53.0122 10.2427 51.9349 8.728 49.7802 8.728C48.5429 8.728 47.4122 9.368 46.3882 10.648C45.3856 11.928 44.8522 13.688 44.7882 15.928V23H42.3562V10.2L42.0362 7L44.1482 6.84L44.7562 10.136C45.4176 8.984 46.2389 8.09867 47.2203 7.48C48.2016 6.86133 49.1936 6.552 50.1962 6.552ZM17.568 59L13.152 41.944L8.576 59H5.6L0 37.24H2.656L7.136 55.16L11.936 37.24H14.56L19.072 55.16L23.84 37.24H26.4L20.544 59H17.568ZM29.5103 39.512C29.2543 39.2133 29.1263 38.84 29.1263 38.392C29.1263 37.944 29.2543 37.5813 29.5103 37.304C29.7662 37.0053 30.1396 36.856 30.6302 36.856C31.1209 36.856 31.5049 37.0053 31.7822 37.304C32.0596 37.6027 32.1983 37.9653 32.1983 38.392C32.1983 38.8187 32.0596 39.1813 31.7822 39.48C31.5049 39.7787 31.1209 39.928 30.6302 39.928C30.1396 39.928 29.7662 39.7893 29.5103 39.512ZM29.4462 59V43H31.8783V59H29.4462ZM35.8417 45.08V43H38.2737L39.0417 38.2H40.7057V43H44.4497V45.08H40.7057V55.512C40.7057 56.6853 41.1858 57.272 42.1458 57.272C42.8711 57.272 43.6604 56.9627 44.5138 56.344L45.4097 57.976C44.1724 58.9573 42.9671 59.448 41.7937 59.448C40.6204 59.448 39.7351 59.1707 39.1377 58.616C38.5617 58.04 38.2737 57.0053 38.2737 55.512V45.08H35.8417ZM61.6355 59H59.2035V49.272C59.2035 46.2427 58.1262 44.728 55.9715 44.728C54.7342 44.728 53.6035 45.368 52.5795 46.648C51.5768 47.928 51.0435 49.688 50.9795 51.928V59H48.5475V36.6H50.9795V46.104C51.6195 44.952 52.4195 44.0773 53.3795 43.48C54.3608 42.8613 55.3635 42.552 56.3875 42.552C59.8862 42.552 61.6355 44.792 61.6355 49.272V59ZM2.4 73.24H4.96V87.064C4.96 88.8773 5.408 90.3493 6.304 91.48C7.22133 92.6107 8.59733 93.176 10.432 93.176C12.2667 93.176 13.6427 92.6107 14.56 91.48C15.4773 90.3493 15.936 88.8773 15.936 87.064V73.24H18.496V86.904C18.496 89.4427 17.824 91.512 16.48 93.112C15.136 94.712 13.12 95.512 10.432 95.512C7.744 95.512 5.728 94.712 4.384 93.112C3.06133 91.512 2.4 89.4427 2.4 86.904V73.24ZM27.9783 93.24C28.9169 93.24 29.7063 93.016 30.3463 92.568C30.9863 92.12 31.3063 91.5653 31.3063 90.904C31.3063 90.2213 31.1249 89.688 30.7622 89.304C30.3996 88.8987 30.0049 88.6107 29.5782 88.44C29.1729 88.2693 28.5863 88.0773 27.8183 87.864C27.0503 87.6293 26.4636 87.4373 26.0582 87.288C25.6529 87.1173 25.1729 86.8613 24.6183 86.52C23.5729 85.88 23.0502 84.792 23.0502 83.256C23.0502 81.6987 23.5729 80.5253 24.6183 79.736C25.6636 78.9467 26.8903 78.552 28.2983 78.552C29.1729 78.552 30.0476 78.6693 30.9223 78.904C31.8183 79.1387 32.4903 79.384 32.9383 79.64L32.0423 81.592C31.0183 81.0373 29.7703 80.76 28.2983 80.76C27.5516 80.76 26.8903 80.9627 26.3142 81.368C25.7596 81.752 25.4823 82.2533 25.4823 82.872C25.4823 83.4693 25.6529 83.9387 25.9943 84.28C26.3356 84.6213 26.6876 84.8667 27.0503 85.016C27.4129 85.1653 27.9676 85.3467 28.7143 85.56C29.4609 85.7733 30.0583 85.976 30.5063 86.168C30.9756 86.3387 31.4983 86.616 32.0743 87C33.1836 87.7467 33.7383 88.9307 33.7383 90.552C33.7383 92.152 33.1836 93.368 32.0743 94.2C30.9863 95.032 29.6209 95.448 27.9783 95.448C25.7596 95.448 23.8822 94.7333 22.3462 93.304L23.6582 91.544C24.8316 92.6747 26.2716 93.24 27.9783 93.24Z" fill="#1F3D66"/>
<path d="M0 26.2H57.8442V27.8H0V26.2ZM0 62.2H64.0355V63.8H0V62.2Z" fill="#1F3D66"/>
<path d="M0 98.2H34.8582V99.8H0V98.2Z" fill="#1F3D66"/>
<path d="M8.704 1.24V0.74H8.204V1.24H8.704ZM11.264 1.24H11.764V0.74H11.264V1.24ZM9.728 21.784L9.35129 21.4552L9.35085 21.4557L9.728 21.784ZM0 21.176L-0.393159 20.8671L-0.667217 21.2159L-0.353553 21.5296L0 21.176ZM1.408 19.384L1.75237 19.0215L1.35417 18.6432L1.01484 19.0751L1.408 19.384ZM5.472 21.708C6.67319 21.708 7.64566 21.2957 8.29741 20.4181C8.92846 19.5684 9.204 18.354 9.204 16.856H8.204C8.204 18.2594 7.94087 19.221 7.49459 19.8219C7.06901 20.3949 6.42548 20.708 5.472 20.708V21.708ZM9.204 16.856V1.24H8.204V16.856H9.204ZM8.704 1.74H11.264V0.74H8.704V1.74ZM10.764 1.24V16.856H11.764V1.24H10.764ZM10.764 16.856C10.764 18.8904 10.2713 20.401 9.35129 21.4552L10.1047 22.1128C11.2327 20.8203 11.764 19.0456 11.764 16.856H10.764ZM9.35085 21.4557C8.44818 22.4928 7.28721 23.012 5.824 23.012V24.012C7.56079 24.012 9.00249 23.3792 10.1052 22.1123L9.35085 21.4557ZM5.824 23.012C3.62305 23.012 1.81146 22.2804 0.353553 20.8224L-0.353553 21.5296C1.30321 23.1863 3.37428 24.012 5.824 24.012V23.012ZM0.393159 21.4849L1.80116 19.6929L1.01484 19.0751L-0.393159 20.8671L0.393159 21.4849ZM1.06363 19.7465C2.41355 21.0289 3.88595 21.708 5.472 21.708V20.708C4.19939 20.708 2.96245 20.1711 1.75237 19.0215L1.06363 19.7465ZM17.1762 21.112L16.7749 21.4103L16.7769 21.4129L17.1762 21.112ZM17.1762 8.92L17.5756 9.22088L17.5775 9.21826L17.1762 8.92ZM27.7363 8.92L27.3375 9.22173L27.3395 9.22433L27.7363 8.92ZM27.7363 21.112L28.133 21.4163L28.135 21.4137L27.7363 21.112ZM19.0002 10.488L19.4163 10.7654L19.4186 10.7618L19.0002 10.488ZM19.0002 19.544L18.5819 19.8178L18.5842 19.8214L19.0002 19.544ZM25.9123 19.544L25.4974 19.2649L25.4962 19.2666L25.9123 19.544ZM25.9123 10.488L25.4938 10.7619L25.4998 10.7706L25.9123 10.488ZM17.5775 20.8137C16.4838 19.3421 15.9162 17.4177 15.9162 15H14.9162C14.9162 17.5743 15.5221 19.7246 16.775 21.4103L17.5775 20.8137ZM15.9162 15C15.9162 12.5819 16.4839 10.6699 17.5756 9.22087L16.7769 8.61912C15.5219 10.2848 14.9162 12.4261 14.9162 15H15.9162ZM17.5775 9.21826C18.6387 7.79059 20.2245 7.052 22.4243 7.052V6.052C19.9734 6.052 18.0605 6.89208 16.775 8.62174L17.5775 9.21826ZM22.4243 7.052C24.647 7.052 26.2555 7.7919 27.3375 9.22172L28.135 8.61828C26.8276 6.89076 24.8948 6.052 22.4243 6.052V7.052ZM27.3395 9.22433C28.4509 10.6731 29.0283 12.5838 29.0283 15H30.0283C30.0283 12.4242 29.411 10.2816 28.133 8.61567L27.3395 9.22433ZM29.0283 15C29.0283 17.4159 28.451 19.3389 27.3375 20.8103L28.135 21.4137C29.4108 19.7278 30.0283 17.5761 30.0283 15H29.0283ZM27.3395 20.8077C26.2585 22.2169 24.6495 22.948 22.4243 22.948V23.948C24.8923 23.948 26.8247 23.1218 28.133 21.4163L27.3395 20.8077ZM22.4243 22.948C20.2219 22.948 18.6357 22.2182 17.5756 20.8111L16.7769 21.4129C18.0635 23.1205 19.9759 23.948 22.4243 23.948V22.948ZM18.5842 10.2106C17.7457 11.4684 17.3482 13.0782 17.3482 15H18.3482C18.3482 13.2098 18.7188 11.8116 19.4163 10.7653L18.5842 10.2106ZM17.3482 15C17.3482 16.9224 17.7459 18.5406 18.5819 19.8178L19.4186 19.2702C18.7186 18.2007 18.3482 16.7896 18.3482 15H17.3482ZM18.5842 19.8214C19.4563 21.1295 20.7746 21.772 22.4563 21.772V20.772C21.0659 20.772 20.0802 20.2625 19.4163 19.2666L18.5842 19.8214ZM22.4563 21.772C24.1379 21.772 25.4562 21.1295 26.3283 19.8214L25.4962 19.2666C24.8323 20.2625 23.8466 20.772 22.4563 20.772V21.772ZM26.3271 19.8231C27.1869 18.545 27.5963 16.9248 27.5963 15H26.5963C26.5963 16.7872 26.2163 18.1963 25.4974 19.2649L26.3271 19.8231ZM27.5963 15C27.5963 13.0758 27.1871 11.464 26.3247 10.2054L25.4998 10.7706C26.2161 11.816 26.5963 13.2122 26.5963 15H27.5963ZM26.3306 10.2142C25.4603 8.88447 24.1419 8.228 22.4563 8.228V9.228C23.8426 9.228 24.8282 9.74486 25.4939 10.7618L26.3306 10.2142ZM22.4563 8.228C20.7706 8.228 19.4522 8.88447 18.5819 10.2142L19.4186 10.7618C20.0843 9.74486 21.0699 9.228 22.4563 9.228V8.228ZM34.2327 3.512L33.8531 3.83739L33.8591 3.84438L33.8653 3.85114L34.2327 3.512ZM34.2327 1.304L34.6002 1.64314L34.6064 1.63638L34.6124 1.62939L34.2327 1.304ZM36.5047 1.304L36.1384 1.64422L36.1384 1.64422L36.5047 1.304ZM36.5047 3.48L36.1384 3.13977L36.1384 3.13977L36.5047 3.48ZM34.1687 23H33.6687V23.5H34.1687V23ZM34.1687 7V6.5H33.6687V7H34.1687ZM36.6007 7H37.1007V6.5H36.6007V7ZM36.6007 23V23.5H37.1007V23H36.6007ZM34.6124 3.1866C34.4448 2.9911 34.3487 2.73827 34.3487 2.392H33.3487C33.3487 2.94173 33.5087 3.43557 33.8531 3.83739L34.6124 3.1866ZM34.3487 2.392C34.3487 2.04476 34.4449 1.81129 34.6002 1.64314L33.8653 0.964859C33.5086 1.35138 33.3487 1.84324 33.3487 2.392H34.3487ZM34.6124 1.62939C34.7506 1.46817 34.9689 1.356 35.3527 1.356V0.355999C34.7553 0.355999 34.2269 0.542495 33.8531 0.978603L34.6124 1.62939ZM35.3527 1.356C35.7351 1.356 35.9747 1.46793 36.1384 1.64422L36.8711 0.963773C36.4802 0.542735 35.9518 0.355999 35.3527 0.355999V1.356ZM36.1384 1.64422C36.3255 1.84575 36.4208 2.08503 36.4208 2.392H37.4208C37.4208 1.84564 37.2387 1.35959 36.8711 0.963773L36.1384 1.64422ZM36.4208 2.392C36.4208 2.69897 36.3255 2.93825 36.1384 3.13977L36.8711 3.82023C37.2387 3.42441 37.4208 2.93836 37.4208 2.392H36.4208ZM36.1384 3.13977C35.9747 3.31607 35.7351 3.428 35.3527 3.428V4.428C35.9518 4.428 36.4802 4.24126 36.8711 3.82023L36.1384 3.13977ZM35.3527 3.428C34.9574 3.428 34.7352 3.31915 34.6002 3.17286L33.8653 3.85114C34.2423 4.25952 34.7667 4.428 35.3527 4.428V3.428ZM34.6687 23V7H33.6687V23H34.6687ZM34.1687 7.5H36.6007V6.5H34.1687V7.5ZM36.1007 7V23H37.1007V7H36.1007ZM36.6007 22.5H34.1687V23.5H36.6007V22.5ZM55.4443 23V23.5H55.9443V23H55.4443ZM53.0122 23H52.5122V23.5H53.0122V23ZM46.3882 10.648L45.9978 10.3356L45.9946 10.3397L46.3882 10.648ZM44.7882 15.928L44.2885 15.9137L44.2882 15.9209V15.928H44.7882ZM44.7882 23V23.5H45.2882V23H44.7882ZM42.3562 23H41.8562V23.5H42.3562V23ZM42.3562 10.2H42.8562V10.1751L42.8538 10.1502L42.3562 10.2ZM42.0362 7L41.9985 6.50143L41.4878 6.54012L41.5387 7.04975L42.0362 7ZM44.1482 6.84L44.64 6.7493L44.5585 6.30749L44.1105 6.34143L44.1482 6.84ZM44.7562 10.136L44.2645 10.2267L44.5117 11.5663L45.1899 10.3849L44.7562 10.136ZM47.2203 7.48L47.4869 7.90296L47.2203 7.48ZM50.1962 7.052C51.831 7.052 52.9801 7.56905 53.7382 8.53975C54.5146 9.53396 54.9443 11.0834 54.9443 13.272H55.9443C55.9443 10.9806 55.4992 9.17004 54.5263 7.92425C53.5351 6.65495 52.0602 6.052 50.1962 6.052V7.052ZM54.9443 13.272V23H55.9443V13.272H54.9443ZM55.4443 22.5H53.0122V23.5H55.4443V22.5ZM53.5122 23V13.272H52.5122V23H53.5122ZM53.5122 13.272C53.5122 11.7132 53.2378 10.4545 52.6117 9.5742C51.9633 8.66261 50.9898 8.228 49.7802 8.228V9.228C50.7253 9.228 51.3679 9.55072 51.7968 10.1538C52.248 10.7882 52.5122 11.8015 52.5122 13.272H53.5122ZM49.7802 8.228C48.3449 8.228 47.0836 8.97844 45.9978 10.3357L46.7787 10.9603C47.7409 9.75756 48.7409 9.228 49.7802 9.228V8.228ZM45.9946 10.3397C44.9052 11.7304 44.3544 13.6065 44.2885 15.9137L45.288 15.9423C45.3501 13.7695 45.8659 12.1256 46.7819 10.9563L45.9946 10.3397ZM44.2882 15.928V23H45.2882V15.928H44.2882ZM44.7882 22.5H42.3562V23.5H44.7882V22.5ZM42.8562 23V10.2H41.8562V23H42.8562ZM42.8538 10.1502L42.5338 6.95025L41.5387 7.04975L41.8587 10.2498L42.8538 10.1502ZM42.074 7.49857L44.186 7.33857L44.1105 6.34143L41.9985 6.50143L42.074 7.49857ZM43.6565 6.9307L44.2645 10.2267L45.248 10.0453L44.64 6.7493L43.6565 6.9307ZM45.1899 10.3849C45.8165 9.29335 46.584 8.47217 47.4869 7.90296L46.9536 7.05704C45.8938 7.72517 45.0186 8.67465 44.3226 9.88707L45.1899 10.3849ZM47.4869 7.90296C48.4012 7.32656 49.302 7.052 50.1962 7.052V6.052C49.0852 6.052 48.002 6.3961 46.9536 7.05704L47.4869 7.90296ZM17.568 59L17.084 59.1253L17.181 59.5H17.568V59ZM13.152 41.944L13.636 41.8187L13.1606 39.9824L12.6691 41.8144L13.152 41.944ZM8.576 59V59.5H8.95954L9.05892 59.1296L8.576 59ZM5.6 59L5.11578 59.1246L5.21238 59.5H5.6V59ZM0 37.24V36.74H-0.644969L-0.484222 37.3646L0 37.24ZM2.656 37.24L3.14107 37.1187L3.04639 36.74H2.656V37.24ZM7.136 55.16L6.65093 55.2813L7.11931 57.1548L7.61897 55.2894L7.136 55.16ZM11.936 37.24V36.74H11.5523L11.453 37.1106L11.936 37.24ZM14.56 37.24L15.0449 37.1179L14.9497 36.74H14.56V37.24ZM19.072 55.16L18.5871 55.2821L19.0586 57.1548L19.5552 55.2886L19.072 55.16ZM23.84 37.24V36.74H23.4556L23.3568 37.1114L23.84 37.24ZM26.4 37.24L26.8828 37.3699L27.0523 36.74H26.4V37.24ZM20.544 59V59.5H20.9272L21.0268 59.1299L20.544 59ZM18.052 58.8747L13.636 41.8187L12.668 42.0693L17.084 59.1253L18.052 58.8747ZM12.6691 41.8144L8.09308 58.8704L9.05892 59.1296L13.6349 42.0736L12.6691 41.8144ZM8.576 58.5H5.6V59.5H8.576V58.5ZM6.08422 58.8754L0.484222 37.1154L-0.484222 37.3646L5.11578 59.1246L6.08422 58.8754ZM0 37.74H2.656V36.74H0V37.74ZM2.17093 37.3613L6.65093 55.2813L7.62107 55.0387L3.14107 37.1187L2.17093 37.3613ZM7.61897 55.2894L12.419 37.3694L11.453 37.1106L6.65303 55.0306L7.61897 55.2894ZM11.936 37.74H14.56V36.74H11.936V37.74ZM14.0751 37.3621L18.5871 55.2821L19.5569 55.0379L15.0449 37.1179L14.0751 37.3621ZM19.5552 55.2886L24.3232 37.3686L23.3568 37.1114L18.5888 55.0314L19.5552 55.2886ZM23.84 37.74H26.4V36.74H23.84V37.74ZM25.9172 37.1101L20.0612 58.8701L21.0268 59.1299L26.8828 37.3699L25.9172 37.1101ZM20.544 58.5H17.568V59.5H20.544V58.5ZM29.5103 39.512L29.1306 39.8374L29.1366 39.8444L29.1428 39.8511L29.5103 39.512ZM29.5103 37.304L29.8777 37.6431L29.8839 37.6364L29.8899 37.6294L29.5103 37.304ZM31.7822 37.304L31.4159 37.6442L31.4159 37.6442L31.7822 37.304ZM31.7822 39.48L31.4159 39.1398L31.4159 39.1398L31.7822 39.48ZM29.4462 59H28.9462V59.5H29.4462V59ZM29.4462 43V42.5H28.9462V43H29.4462ZM31.8783 43H32.3783V42.5H31.8783V43ZM31.8783 59V59.5H32.3783V59H31.8783ZM29.8899 39.1866C29.7223 38.9911 29.6263 38.7383 29.6263 38.392H28.6263C28.6263 38.9417 28.7862 39.4356 29.1306 39.8374L29.8899 39.1866ZM29.6263 38.392C29.6263 38.0448 29.7224 37.8113 29.8777 37.6431L29.1428 36.9649C28.7861 37.3514 28.6263 37.8432 28.6263 38.392H29.6263ZM29.8899 37.6294C30.0281 37.4682 30.2464 37.356 30.6302 37.356V36.356C30.0328 36.356 29.5044 36.5425 29.1306 36.9786L29.8899 37.6294ZM30.6302 37.356C31.0126 37.356 31.2522 37.4679 31.4159 37.6442L32.1486 36.9638C31.7577 36.5427 31.2293 36.356 30.6302 36.356V37.356ZM31.4159 37.6442C31.603 37.8457 31.6983 38.085 31.6983 38.392H32.6983C32.6983 37.8456 32.5162 37.3596 32.1486 36.9638L31.4159 37.6442ZM31.6983 38.392C31.6983 38.699 31.603 38.9383 31.4159 39.1398L32.1486 39.8202C32.5162 39.4244 32.6983 38.9384 32.6983 38.392H31.6983ZM31.4159 39.1398C31.2522 39.3161 31.0126 39.428 30.6302 39.428V40.428C31.2293 40.428 31.7577 40.2413 32.1486 39.8202L31.4159 39.1398ZM30.6302 39.428C30.2349 39.428 30.0127 39.3191 29.8777 39.1729L29.1428 39.8511C29.5198 40.2595 30.0442 40.428 30.6302 40.428V39.428ZM29.9462 59V43H28.9462V59H29.9462ZM29.4462 43.5H31.8783V42.5H29.4462V43.5ZM31.3783 43V59H32.3783V43H31.3783ZM31.8783 58.5H29.4462V59.5H31.8783V58.5ZM35.8417 45.08H35.3417V45.58H35.8417V45.08ZM35.8417 43V42.5H35.3417V43H35.8417ZM38.2737 43V43.5H38.7001L38.7675 43.079L38.2737 43ZM39.0417 38.2V37.7H38.6154L38.548 38.121L39.0417 38.2ZM40.7057 38.2H41.2057V37.7H40.7057V38.2ZM40.7057 43H40.2057V43.5H40.7057V43ZM44.4497 43H44.9497V42.5H44.4497V43ZM44.4497 45.08V45.58H44.9497V45.08H44.4497ZM40.7057 45.08V44.58H40.2057V45.08H40.7057ZM44.5138 56.344L44.952 56.1034L44.6792 55.6065L44.2203 55.9392L44.5138 56.344ZM45.4097 57.976L45.7204 58.3677L46.0512 58.1054L45.848 57.7354L45.4097 57.976ZM39.1377 58.616L38.7842 58.9696L38.7907 58.9761L38.7975 58.9824L39.1377 58.616ZM38.2737 45.08H38.7737V44.58H38.2737V45.08ZM36.3417 45.08V43H35.3417V45.08H36.3417ZM35.8417 43.5H38.2737V42.5H35.8417V43.5ZM38.7675 43.079L39.5355 38.279L38.548 38.121L37.78 42.921L38.7675 43.079ZM39.0417 38.7H40.7057V37.7H39.0417V38.7ZM40.2057 38.2V43H41.2057V38.2H40.2057ZM40.7057 43.5H44.4497V42.5H40.7057V43.5ZM43.9497 43V45.08H44.9497V43H43.9497ZM44.4497 44.58H40.7057V45.58H44.4497V44.58ZM40.2057 45.08V55.512H41.2057V45.08H40.2057ZM40.2057 55.512C40.2057 56.1541 40.3351 56.7285 40.6788 57.1486C41.0382 57.5879 41.5592 57.772 42.1458 57.772V56.772C41.7723 56.772 41.5733 56.6627 41.4527 56.5154C41.3164 56.3488 41.2057 56.0432 41.2057 55.512H40.2057ZM42.1458 57.772C43.0145 57.772 43.9056 57.4025 44.8072 56.7488L44.2203 55.9392C43.4152 56.5229 42.7276 56.772 42.1458 56.772V57.772ZM44.0755 56.5846L44.9715 58.2166L45.848 57.7354L44.952 56.1034L44.0755 56.5846ZM45.0991 57.5843C43.9196 58.5197 42.8207 58.948 41.7937 58.948V59.948C43.1135 59.948 44.4252 59.395 45.7204 58.3677L45.0991 57.5843ZM41.7937 58.948C40.6915 58.948 39.9491 58.6871 39.478 58.2496L38.7975 58.9824C39.521 59.6542 40.5493 59.948 41.7937 59.948V58.948ZM39.4913 58.2624C39.0617 57.8329 38.7737 56.9728 38.7737 55.512H37.7737C37.7737 57.0379 38.0618 58.2471 38.7842 58.9696L39.4913 58.2624ZM38.7737 55.512V45.08H37.7737V55.512H38.7737ZM38.2737 44.58H35.8417V45.58H38.2737V44.58ZM61.6355 59V59.5H62.1355V59H61.6355ZM59.2035 59H58.7035V59.5H59.2035V59ZM52.5795 46.648L52.189 46.3356L52.1859 46.3397L52.5795 46.648ZM50.9795 51.928L50.4797 51.9137L50.4795 51.9209V51.928H50.9795ZM50.9795 59V59.5H51.4795V59H50.9795ZM48.5475 59H48.0475V59.5H48.5475V59ZM48.5475 36.6V36.1H48.0475V36.6H48.5475ZM50.9795 36.6H51.4795V36.1H50.9795V36.6ZM50.9795 46.104H50.4795V48.0336L51.4166 46.3468L50.9795 46.104ZM53.3795 43.48L53.6437 43.9045L53.6462 43.903L53.3795 43.48ZM61.6355 58.5H59.2035V59.5H61.6355V58.5ZM59.7035 59V49.272H58.7035V59H59.7035ZM59.7035 49.272C59.7035 47.7132 59.4291 46.4545 58.8029 45.5742C58.1546 44.6626 57.1811 44.228 55.9715 44.228V45.228C56.9166 45.228 57.5591 45.5507 57.9881 46.1538C58.4393 46.7882 58.7035 47.8015 58.7035 49.272H59.7035ZM55.9715 44.228C54.5362 44.228 53.2748 44.9784 52.1891 46.3357L52.9699 46.9603C53.9322 45.7576 54.9322 45.228 55.9715 45.228V44.228ZM52.1859 46.3397C51.0965 47.7304 50.5456 49.6065 50.4797 51.9137L51.4793 51.9423C51.5414 49.7695 52.0572 48.1256 52.9731 46.9563L52.1859 46.3397ZM50.4795 51.928V59H51.4795V51.928H50.4795ZM50.9795 58.5H48.5475V59.5H50.9795V58.5ZM49.0475 59V36.6H48.0475V59H49.0475ZM48.5475 37.1H50.9795V36.1H48.5475V37.1ZM50.4795 36.6V46.104H51.4795V36.6H50.4795ZM51.4166 46.3468C52.0222 45.2567 52.7669 44.45 53.6437 43.9045L53.1153 43.0555C52.0721 43.7046 51.2168 44.6473 50.5424 45.8612L51.4166 46.3468ZM53.6462 43.903C54.5585 43.3278 55.47 43.052 56.3875 43.052V42.052C55.257 42.052 54.1631 42.3949 53.1128 43.057L53.6462 43.903ZM56.3875 43.052C58.0222 43.052 59.1714 43.569 59.9294 44.5397C60.7059 45.534 61.1355 47.0834 61.1355 49.272H62.1355C62.1355 46.9806 61.6905 45.17 60.7176 43.9243C59.7263 42.655 58.2514 42.052 56.3875 42.052V43.052ZM61.1355 49.272V59H62.1355V49.272H61.1355ZM2.4 73.24V72.74H1.9V73.24H2.4ZM4.96 73.24H5.46V72.74H4.96V73.24ZM6.304 91.48L5.9121 91.7906L5.91572 91.795L6.304 91.48ZM14.56 91.48L14.1717 91.165L14.1717 91.165L14.56 91.48ZM15.936 73.24V72.74H15.436V73.24H15.936ZM18.496 73.24H18.996V72.74H18.496V73.24ZM16.48 93.112L16.8629 93.4336L16.8629 93.4336L16.48 93.112ZM4.384 93.112L3.99862 93.4306L4.00115 93.4336L4.384 93.112ZM2.4 73.74H4.96V72.74H2.4V73.74ZM4.46 73.24V87.064H5.46V73.24H4.46ZM4.46 87.064C4.46 88.9605 4.92973 90.5508 5.91213 91.7905L6.69587 91.1695C5.88627 90.1478 5.46 88.7941 5.46 87.064H4.46ZM5.91572 91.795C6.952 93.0723 8.48939 93.676 10.432 93.676V92.676C8.70527 92.676 7.49067 92.149 6.69228 91.165L5.91572 91.795ZM10.432 93.676C12.3746 93.676 13.912 93.0723 14.9483 91.795L14.1717 91.165C13.3733 92.149 12.1587 92.676 10.432 92.676V93.676ZM14.9483 91.795C15.9542 90.5552 16.436 88.9632 16.436 87.064H15.436C15.436 88.7915 15.0005 90.1435 14.1717 91.165L14.9483 91.795ZM16.436 87.064V73.24H15.436V87.064H16.436ZM15.936 73.74H18.496V72.74H15.936V73.74ZM17.996 73.24V86.904H18.996V73.24H17.996ZM17.996 86.904C17.996 89.3513 17.3501 91.2987 16.0971 92.7904L16.8629 93.4336C18.2979 91.7253 18.996 89.534 18.996 86.904H17.996ZM16.0971 92.7904C14.874 94.2465 13.0178 95.012 10.432 95.012V96.012C13.2222 96.012 15.398 95.1775 16.8629 93.4336L16.0971 92.7904ZM10.432 95.012C7.84617 95.012 5.99001 94.2465 4.76685 92.7904L4.00115 93.4336C5.46599 95.1775 7.64183 96.012 10.432 96.012V95.012ZM4.76937 92.7934C3.53626 91.3018 2.9 89.3532 2.9 86.904H1.9C1.9 89.5321 2.58641 91.7222 3.99863 93.4306L4.76937 92.7934ZM2.9 86.904V73.24H1.9V86.904H2.9ZM30.3463 92.568L30.0595 92.1584L30.0595 92.1584L30.3463 92.568ZM30.7622 89.304L30.3895 89.6375L30.3987 89.6473L30.7622 89.304ZM29.5782 88.44L29.3842 88.9009L29.3926 88.9042L29.5782 88.44ZM27.8183 87.864L27.6721 88.3423L27.6844 88.3458L27.8183 87.864ZM26.0582 87.288L25.8642 87.7488L25.8747 87.7532L25.8854 87.7572L26.0582 87.288ZM24.6183 86.52L24.8803 86.0942L24.8793 86.0936L24.6183 86.52ZM24.6183 79.736L24.3169 79.337L24.3169 79.337L24.6183 79.736ZM30.9223 78.904L30.7927 79.3869L30.7956 79.3877L30.9223 78.904ZM32.9383 79.64L33.3927 79.8486L33.5835 79.4328L33.1863 79.2059L32.9383 79.64ZM32.0423 81.592L31.8041 82.0316L32.2738 82.2861L32.4967 81.8006L32.0423 81.592ZM26.3142 81.368L26.5989 81.7791L26.602 81.7769L26.3142 81.368ZM25.9943 84.28L26.3478 83.9264L26.3478 83.9264L25.9943 84.28ZM28.7143 85.56L28.5769 86.0408L28.5769 86.0408L28.7143 85.56ZM30.5063 86.168L30.3093 86.6276L30.3222 86.6331L30.3354 86.6379L30.5063 86.168ZM32.0743 87L32.3534 86.5852L32.3516 86.584L32.0743 87ZM32.0743 94.2L31.7742 93.8L31.7705 93.8028L32.0743 94.2ZM22.3462 93.304L21.9454 93.0052L21.6774 93.3646L22.0056 93.67L22.3462 93.304ZM23.6582 91.544L24.0052 91.184L23.5966 90.7902L23.2574 91.2452L23.6582 91.544ZM27.9783 93.74C28.9984 93.74 29.8932 93.4955 30.633 92.9776L30.0595 92.1584C29.5193 92.5365 28.8354 92.74 27.9783 92.74V93.74ZM30.633 92.9776C31.3789 92.4555 31.8063 91.7596 31.8063 90.904H30.8063C30.8063 91.371 30.5936 91.7845 30.0595 92.1584L30.633 92.9776ZM31.8063 90.904C31.8063 90.1323 31.5994 89.4622 31.1258 88.9607L30.3987 89.6473C30.6504 89.9138 30.8063 90.3103 30.8063 90.904H31.8063ZM31.1349 88.9706C30.7302 88.5183 30.2742 88.1799 29.7639 87.9758L29.3926 88.9042C29.7357 89.0415 30.069 89.279 30.3896 89.6374L31.1349 88.9706ZM29.7723 87.9792C29.3376 87.7962 28.727 87.5975 27.9521 87.3822L27.6844 88.3458C28.4455 88.5572 29.0082 88.7425 29.3842 88.9008L29.7723 87.9792ZM27.9644 87.3858C27.1991 87.152 26.6231 86.9632 26.2311 86.8188L25.8854 87.7572C26.3041 87.9114 26.9014 88.1067 27.6721 88.3422L27.9644 87.3858ZM26.2523 86.8272C25.8788 86.6699 25.4225 86.4278 24.8803 86.0942L24.3562 86.9458C24.9233 87.2948 25.4271 87.5648 25.8642 87.7488L26.2523 86.8272ZM24.8793 86.0936C24.0211 85.5681 23.5502 84.6687 23.5502 83.256H22.5502C22.5502 84.9153 23.1248 86.1919 24.3572 86.9464L24.8793 86.0936ZM23.5502 83.256C23.5502 81.8221 24.0238 80.8114 24.9196 80.135L24.3169 79.337C23.1221 80.2392 22.5502 81.5752 22.5502 83.256H23.5502ZM24.9196 80.135C25.8714 79.4162 26.9903 79.052 28.2983 79.052V78.052C26.7902 78.052 25.4557 78.4771 24.3169 79.337L24.9196 80.135ZM28.2983 79.052C29.1276 79.052 29.9588 79.1632 30.7927 79.3869L31.0518 78.4211C30.1364 78.1755 29.2182 78.052 28.2983 78.052V79.052ZM30.7956 79.3877C31.677 79.6185 32.2991 79.8507 32.6902 80.0741L33.1863 79.2059C32.6814 78.9173 31.9595 78.6588 31.0489 78.4203L30.7956 79.3877ZM32.4838 79.4314L31.5878 81.3834L32.4967 81.8006L33.3927 79.8486L32.4838 79.4314ZM32.2804 81.1524C31.1664 80.549 29.8319 80.26 28.2983 80.26V81.26C29.7086 81.26 30.8701 81.5257 31.8041 82.0316L32.2804 81.1524ZM28.2983 80.26C27.4551 80.26 26.692 80.4908 26.0265 80.9591L26.602 81.7769C27.0885 81.4345 27.648 81.26 28.2983 81.26V80.26ZM26.0296 80.9569C25.3544 81.4244 24.9823 82.0726 24.9823 82.872H25.9823C25.9823 82.4341 26.1648 82.0796 26.5989 81.7791L26.0296 80.9569ZM24.9823 82.872C24.9823 83.5686 25.1844 84.1772 25.6407 84.6336L26.3478 83.9264C26.1215 83.7001 25.9823 83.3701 25.9823 82.872H24.9823ZM25.6407 84.6336C26.0182 85.0111 26.4238 85.2988 26.8599 85.4783L27.2406 84.5537C26.9513 84.4345 26.6529 84.2316 26.3478 83.9264L25.6407 84.6336ZM26.8599 85.4783C27.2494 85.6387 27.826 85.8262 28.5769 86.0408L28.8516 85.0792C28.1091 84.8671 27.5764 84.6919 27.2406 84.5537L26.8599 85.4783ZM28.5769 86.0408C29.3136 86.2513 29.8886 86.4473 30.3093 86.6276L30.7032 85.7084C30.2279 85.5047 29.6082 85.2954 28.8516 85.0792L28.5769 86.0408ZM30.3354 86.6379C30.7559 86.7908 31.2424 87.0463 31.7969 87.416L32.3516 86.584C31.7541 86.1857 31.1953 85.8865 30.6771 85.6981L30.3354 86.6379ZM31.7951 87.4148C32.7359 88.0481 33.2383 89.0566 33.2383 90.552H34.2383C34.2383 88.8047 33.6313 87.4453 32.3534 86.5852L31.7951 87.4148ZM33.2383 90.552C33.2383 92.0222 32.7372 93.0778 31.7743 93.8L32.3743 94.6C33.63 93.6582 34.2383 92.2818 34.2383 90.552H33.2383ZM31.7705 93.8028C30.7861 94.5556 29.5337 94.948 27.9783 94.948V95.948C29.7081 95.948 31.1864 95.5084 32.378 94.5972L31.7705 93.8028ZM27.9783 94.948C25.878 94.948 24.1247 94.2759 22.6869 92.938L22.0056 93.67C23.6398 95.1908 25.6412 95.948 27.9783 95.948V94.948ZM22.7471 93.6028L24.0591 91.8428L23.2574 91.2452L21.9454 93.0052L22.7471 93.6028ZM23.3113 91.904C24.5826 93.1291 26.149 93.74 27.9783 93.74V92.74C26.3942 92.74 25.0806 92.2202 24.0052 91.184L23.3113 91.904Z" fill="#1F3D66"/>
<path d="M0 26.2V25.7H-0.5V26.2H0ZM57.8442 26.2H58.3442V25.7H57.8442V26.2ZM57.8442 27.8V28.3H58.3442V27.8H57.8442ZM0 27.8H-0.5V28.3H0V27.8ZM0 62.2V61.7H-0.5V62.2H0ZM64.0355 62.2H64.5355V61.7H64.0355V62.2ZM64.0355 63.8V64.3H64.5355V63.8H64.0355ZM0 63.8H-0.5V64.3H0V63.8ZM0 98.2V97.7H-0.5V98.2H0ZM34.8582 98.2H35.3582V97.7H34.8582V98.2ZM34.8582 99.8V100.3H35.3582V99.8H34.8582ZM0 99.8H-0.5V100.3H0V99.8ZM0 26.7H57.8442V25.7H0V26.7ZM57.3442 26.2V27.8H58.3442V26.2H57.3442ZM57.8442 27.3H0V28.3H57.8442V27.3ZM0.5 27.8V26.2H-0.5V27.8H0.5ZM0 62.7H64.0355V61.7H0V62.7ZM63.5355 62.2V63.8H64.5355V62.2H63.5355ZM64.0355 63.3H0V64.3H64.0355V63.3ZM0.5 63.8V62.2H-0.5V63.8H0.5ZM0 98.7H34.8582V97.7H0V98.7ZM34.3582 98.2V99.8H35.3582V98.2H34.3582ZM34.8582 99.3H0V100.3H34.8582V99.3ZM0.5 99.8V98.2H-0.5V99.8H0.5Z" fill="#1F3D66"/>
</svg>
