<svg width="148" height="30" viewBox="0 0 148 30" fill="none" xmlns="http://www.w3.org/2000/svg">
<path d="M1.672 23C0.776 23 0.328 22.552 0.328 21.656V2.648C0.328 1.752 0.776 1.304 1.672 1.304C2.568 1.304 3.016 1.752 3.016 2.648V20.312H11.88C12.776 20.312 13.224 20.76 13.224 21.656C13.224 22.552 12.776 23 11.88 23H1.672ZM19.6075 23C17.8155 23 16.4822 22.5627 15.6075 21.688C14.7328 20.8133 14.2955 19.48 14.2955 17.688C14.2955 15.896 14.7275 14.5627 15.5915 13.688C16.4662 12.8133 17.8048 12.376 19.6075 12.376H26.3755C26.3115 11.256 26.0182 10.4933 25.4955 10.088C24.9728 9.672 24.0768 9.464 22.8075 9.464H20.9515C19.8848 9.464 19.0902 9.53867 18.5675 9.688C18.0448 9.82667 17.6768 10.0827 17.4635 10.456C17.2715 10.904 17.0742 11.2133 16.8715 11.384C16.6688 11.5547 16.3648 11.64 15.9595 11.64C15.5115 11.64 15.1595 11.5173 14.9035 11.272C14.6475 11.016 14.5728 10.68 14.6795 10.264C14.9995 9.05867 15.6662 8.17867 16.6795 7.624C17.7035 7.05867 19.1275 6.776 20.9515 6.776H22.8075C24.9408 6.776 26.5195 7.288 27.5435 8.312C28.5675 9.336 29.0795 10.9147 29.0795 13.048V21.656C29.0795 22.552 28.6315 23 27.7355 23C26.8395 23 26.3915 22.552 26.3915 21.656V20.936C25.2502 22.312 23.5862 23 21.3995 23H19.6075ZM19.6075 20.312H21.3995C22.1888 20.312 22.9302 20.2427 23.6235 20.104C24.3168 19.9547 24.9088 19.688 25.3995 19.304C25.9008 18.92 26.2315 18.3707 26.3915 17.656V15.064H19.6075C18.5515 15.064 17.8475 15.24 17.4955 15.592C17.1542 15.944 16.9835 16.6427 16.9835 17.688C16.9835 18.744 17.1542 19.448 17.4955 19.8C17.8475 20.1413 18.5515 20.312 19.6075 20.312ZM46.212 6.776C47.108 6.776 47.556 7.224 47.556 8.12V21.656C47.556 22.552 47.108 23 46.212 23C45.316 23 44.868 22.552 44.868 21.656V21.128C43.7373 22.376 42.0733 23 39.876 23H38.98C36.8573 23 35.2787 22.488 34.244 21.464C33.22 20.4293 32.708 18.8507 32.708 16.728V8.12C32.708 7.224 33.156 6.776 34.052 6.776C34.948 6.776 35.396 7.224 35.396 8.12V16.728C35.396 18.1147 35.6467 19.0587 36.148 19.56C36.66 20.0613 37.604 20.312 38.98 20.312H39.876C41.156 20.312 42.2707 20.1627 43.22 19.864C44.18 19.5653 44.7293 19.1067 44.868 18.488V8.12C44.868 7.224 45.316 6.776 46.212 6.776ZM53.1595 23C52.2635 23 51.8155 22.552 51.8155 21.656V8.12C51.8155 7.224 52.2635 6.776 53.1595 6.776C54.0555 6.776 54.5035 7.224 54.5035 8.12V8.648C55.6342 7.4 57.2982 6.776 59.4955 6.776H60.3915C62.5248 6.776 64.1035 7.288 65.1275 8.312C66.1515 9.336 66.6635 10.9147 66.6635 13.048V21.656C66.6635 22.552 66.2155 23 65.3195 23C64.4235 23 63.9755 22.552 63.9755 21.656V13.048C63.9755 11.6507 63.7195 10.7067 63.2075 10.216C62.7062 9.71467 61.7675 9.464 60.3915 9.464H59.4955C58.2155 9.464 57.1008 9.61333 56.1515 9.912C55.2022 10.2 54.6528 10.6587 54.5035 11.288V21.656C54.5035 22.552 54.0555 23 53.1595 23ZM76.107 23C73.9843 23 72.4057 22.488 71.371 21.464C70.347 20.4293 69.835 18.8507 69.835 16.728V13.048C69.835 10.9147 70.347 9.336 71.371 8.312C72.4057 7.288 73.9843 6.776 76.107 6.776H82.315V1.816C82.315 0.919998 82.763 0.471998 83.659 0.471998C84.555 0.471998 85.003 0.919998 85.003 1.816V21.656C85.003 22.552 84.555 23 83.659 23C82.763 23 82.315 22.552 82.315 21.656V21.432C81.8137 21.944 81.1577 22.3333 80.347 22.6C79.5363 22.8667 78.5283 23 77.323 23H76.107ZM76.107 20.312H77.323C78.731 20.312 79.915 20.1307 80.875 19.768C81.835 19.4053 82.315 18.8507 82.315 18.104V9.464H76.107C74.7203 9.464 73.7763 9.72 73.275 10.232C72.7737 10.7333 72.523 11.672 72.523 13.048V16.728C72.523 18.1147 72.7737 19.0587 73.275 19.56C73.787 20.0613 74.731 20.312 76.107 20.312ZM90.297 23C89.401 23 88.953 22.552 88.953 21.656V8.12C88.953 7.224 89.401 6.776 90.297 6.776C91.193 6.776 91.641 7.224 91.641 8.12V9.368C92.2703 8.51467 93.0703 7.86933 94.041 7.432C95.0223 6.99467 96.1423 6.776 97.401 6.776C98.297 6.776 98.745 7.224 98.745 8.12C98.745 9.016 98.297 9.464 97.401 9.464C95.5557 9.464 94.1477 9.80533 93.177 10.488C92.2063 11.1707 91.6943 12.072 91.641 13.192V21.656C91.641 22.552 91.193 23 90.297 23ZM104.497 29.4C102.951 29.4 101.793 29.0107 101.025 28.232C100.268 27.464 99.8892 26.3067 99.8892 24.76C99.8892 23.864 100.337 23.416 101.233 23.416C102.129 23.416 102.577 23.864 102.577 24.76C102.577 25.56 102.695 26.0827 102.929 26.328C103.175 26.584 103.697 26.712 104.497 26.712H110.705C111.495 26.712 112.012 26.584 112.257 26.328C112.503 26.0827 112.625 25.56 112.625 24.76V20.696C111.985 21.656 111.239 22.28 110.385 22.568C109.543 22.856 108.625 23 107.633 23H106.065C103.953 23 102.396 22.4987 101.393 21.496C100.391 20.4933 99.8892 18.9467 99.8892 16.856V8.12C99.8892 7.224 100.337 6.776 101.233 6.776C102.129 6.776 102.577 7.224 102.577 8.12V16.856C102.577 18.2 102.817 19.112 103.297 19.592C103.788 20.072 104.711 20.312 106.065 20.312H107.633C109.383 20.312 110.652 20.0293 111.441 19.464C112.231 18.888 112.625 18.0187 112.625 16.856V8.12C112.625 7.224 113.073 6.776 113.969 6.776C114.865 6.776 115.313 7.224 115.313 8.12V24.76C115.313 26.3067 114.929 27.464 114.161 28.232C113.393 29.0107 112.241 29.4 110.705 29.4H104.497ZM120.903 23C120.007 23 119.559 22.552 119.559 21.656V1.816C119.559 0.919998 120.007 0.471998 120.903 0.471998C121.799 0.471998 122.247 0.919998 122.247 1.816V13.832L129.863 7.288C130.546 6.70133 131.175 6.744 131.751 7.416C132.338 8.09867 132.295 8.728 131.623 9.304L125.783 14.344L131.367 20.696C131.965 21.3893 131.933 22.0187 131.271 22.584C130.589 23.1707 129.949 23.128 129.351 22.456L123.735 16.12L122.247 17.4V21.656C122.247 22.552 121.799 23 120.903 23ZM146.593 6.776C147.489 6.776 147.937 7.224 147.937 8.12V21.656C147.937 22.552 147.489 23 146.593 23C145.697 23 145.249 22.552 145.249 21.656V21.128C144.119 22.376 142.455 23 140.257 23H139.361C137.239 23 135.66 22.488 134.625 21.464C133.601 20.4293 133.089 18.8507 133.089 16.728V8.12C133.089 7.224 133.537 6.776 134.433 6.776C135.329 6.776 135.777 7.224 135.777 8.12V16.728C135.777 18.1147 136.028 19.0587 136.529 19.56C137.041 20.0613 137.985 20.312 139.361 20.312H140.257C141.537 20.312 142.652 20.1627 143.601 19.864C144.561 19.5653 145.111 19.1067 145.249 18.488V8.12C145.249 7.224 145.697 6.776 146.593 6.776Z" fill="#1F3D66"/>
</svg>
